HIERARCHY
ROOT joint_Root
{
	OFFSET 0.0 0.0 0.0
	CHANNELS 6 Xposition Yposition Zposition Zrotation Xrotation Yrotation 
	JOINT Hips
	{
		OFFSET -0.726466 93.3139 -2.00062
		CHANNELS 6 Xposition Yposition Zposition Zrotation Xrotation Yrotation 
		JOINT Spine
		{
			OFFSET 15.7357 0.0 0.0
			CHANNELS 6 Xposition Yposition Zposition Zrotation Xrotation Yrotation 
			JOINT Chest
			{
				OFFSET 8.98455 -0.406207 0.0
				CHANNELS 6 Xposition Yposition Zposition Zrotation Xrotation Yrotation 
				JOINT Neck
				{
					OFFSET 16.3773 0.0 0.0
					CHANNELS 6 Xposition Yposition Zposition Zrotation Xrotation Yrotation 
					JOINT Head
					{
						OFFSET 6.45672 0.0 0.0
						CHANNELS 6 Xposition Yposition Zposition Zrotation Xrotation Yrotation 
						End Site
						{
							OFFSET 0.0 0.0 0.0
						}
					}
				}
				JOINT Shoulder_L
				{
					OFFSET 12.9942 -0.242716 4.98039
					CHANNELS 6 Xposition Yposition Zposition Zrotation Xrotation Yrotation 
					JOINT UpperArm_L
					{
						OFFSET 5.34809 0.0 0.0
						CHANNELS 6 Xposition Yposition Zposition Zrotation Xrotation Yrotation 
						JOINT LowerArm_L
						{
							OFFSET 24.3286 1.87007e-05 0.0
							CHANNELS 6 Xposition Yposition Zposition Zrotation Xrotation Yrotation 
							JOINT Hand_L
							{
								OFFSET 22.2916 0.0 0.0
								CHANNELS 6 Xposition Yposition Zposition Zrotation Xrotation Yrotation 
								End Site
								{
									OFFSET 0.0 0.0 0.0
								}
							}
						}
					}
				}
				JOINT Shoulder_R
				{
					OFFSET 12.9945 -0.242716 -4.98039
					CHANNELS 6 Xposition Yposition Zposition Zrotation Xrotation Yrotation 
					JOINT UpperArm_R
					{
						OFFSET -5.34813 0.0 0.0
						CHANNELS 6 Xposition Yposition Zposition Zrotation Xrotation Yrotation 
						JOINT LowerArm_R
						{
							OFFSET -24.3289 0.000322201 0.0
							CHANNELS 6 Xposition Yposition Zposition Zrotation Xrotation Yrotation 
							JOINT Hand_R
							{
								OFFSET -22.2915 -0.000108084 0.0
								CHANNELS 6 Xposition Yposition Zposition Zrotation Xrotation Yrotation 
								End Site
								{
									OFFSET 0.0 0.0 0.0
								}
							}
						}
					}
				}
			}
		}
		JOINT UpperLeg_L
		{
			OFFSET -2.19248 -6.46944 0.0
			CHANNELS 6 Xposition Yposition Zposition Zrotation Xrotation Yrotation 
			JOINT LowerLeg_L
			{
				OFFSET 39.0811 0.0 -1.23785e-05
				CHANNELS 6 Xposition Yposition Zposition Zrotation Xrotation Yrotation 
				JOINT Foot_L
				{
					OFFSET 40.9854 0.0 -1.26872e-05
					CHANNELS 6 Xposition Yposition Zposition Zrotation Xrotation Yrotation 
					JOINT Toes_L
					{
						OFFSET 11.7543 0.0 0.0
						CHANNELS 6 Xposition Yposition Zposition Zrotation Xrotation Yrotation 
						End Site
						{
							OFFSET 0.0 0.0 0.0
						}
					}
				}
			}
		}
		JOINT UpperLeg_R
		{
			OFFSET -2.19251 6.46944 0.0
			CHANNELS 6 Xposition Yposition Zposition Zrotation Xrotation Yrotation 
			JOINT LowerLeg_R
			{
				OFFSET -39.0811 -0.00228153 -0.0401928
				CHANNELS 6 Xposition Yposition Zposition Zrotation Xrotation Yrotation 
				JOINT Foot_R
				{
					OFFSET -40.9854 0.0 0.0
					CHANNELS 6 Xposition Yposition Zposition Zrotation Xrotation Yrotation 
					JOINT Toes_R
					{
						OFFSET -11.7543 0.0 0.0
						CHANNELS 6 Xposition Yposition Zposition Zrotation Xrotation Yrotation 
						End Site
						{
							OFFSET 0.0 0.0 0.0
						}
					}
				}
			}
		}
	}
}
MOTION
Frames:	8
Frame Time:	0.0333333
0.000000 0.000000 0.000000 0.000000 0.000000 -0.000000 -1.399100 92.078800 -1.593710 88.636800 -0.927196 4.069560 15.735700 0.000005 -0.000001 70.592100 85.415100 -65.728700 8.984550 -0.406207 -0.000000 1.044840 -3.330410 9.751760 16.377300 -0.000001 -0.000001 1.794810 -1.021140 -0.866197 6.456720 -0.000001 -0.000000 0.031074 -1.284980 11.999700 12.994200 -0.242716 4.980390 -83.832700 -11.524700 -61.592900 5.348090 -0.000007 -0.000001 -57.453700 -58.113200 -104.242000 24.328600 0.000019 0.000005 -1.215220 -1.234600 -44.555400 22.291600 -0.000001 0.000005 20.478100 5.579660 -10.195300 12.994500 -0.242716 -4.980390 90.675600 -1.672740 -68.002800 -5.348130 -0.000001 -0.000004 -50.883900 68.201100 2.721090 -24.328900 0.000322 -0.000009 19.625100 1.036600 -87.096500 -22.291500 -0.000108 -0.000004 26.876500 5.632890 -28.683600 -2.192480 -6.469440 -0.000000 -169.406000 -17.356300 -2.361930 39.081100 -0.000007 -0.000012 -0.158664 0.411708 21.075900 40.985400 -0.000006 -0.000013 -7.302790 -2.511650 -62.339200 11.754300 -0.000000 0.000003 -0.000108 -0.001097 -16.619600 -2.192510 6.469440 -0.000001 173.401000 22.247900 179.263000 -39.081100 -0.002282 -0.040193 -0.087361 0.244838 20.323500 -40.985400 0.000008 0.000006 -4.807040 0.975541 -63.137600 -11.754300 -0.000006 -0.000006 -0.003609 -0.047309 -18.497300
0.000000 0.000000 0.000000 0.000000 0.000000 -0.000000 -1.437130 92.074400 -1.544220 88.619600 -0.942442 4.028510 15.735700 0.000005 -0.000001 70.053100 85.401000 -65.206700 8.984550 -0.406207 -0.000000 1.045660 -3.420210 9.718750 16.377300 -0.000001 -0.000001 1.843250 -0.955093 -0.964451 6.456720 -0.000001 -0.000000 0.138942 -1.183500 11.973400 12.994200 -0.242716 4.980390 -83.828300 -11.546800 -61.621000 5.348090 -0.000007 -0.000001 -57.603800 -57.696000 -106.721000 24.328600 0.000019 0.000005 -1.068860 -0.955108 -48.225300 22.291600 -0.000001 0.000005 20.121300 5.583930 -10.424900 12.994500 -0.242716 -4.980390 90.670700 -1.661760 -68.015300 -5.348130 -0.000001 -0.000004 -50.668000 68.191000 2.465770 -24.328900 0.000322 -0.000009 19.556500 1.047560 -87.054700 -22.291500 -0.000108 -0.000004 26.768800 5.632080 -28.747700 -2.192480 -6.469440 -0.000000 -169.353000 -17.421900 -2.357160 39.081100 -0.000007 -0.000012 -0.160068 0.415563 21.066000 40.985400 -0.000006 -0.000013 -7.333600 -2.471600 -62.353000 11.754300 -0.000000 0.000003 -0.000102 -0.001046 -16.617700 -2.192510 6.469440 -0.000001 173.448000 22.213000 179.248000 -39.081100 -0.002282 -0.040193 -0.087068 0.243959 20.330200 -40.985400 0.000008 0.000006 -4.799500 0.977064 -63.181300 -11.754300 -0.000006 -0.000006 -0.003475 -0.045860 -18.438300
0.000000 0.000000 0.000000 0.000000 0.000000 -0.000000 -1.472590 92.068800 -1.494730 88.595400 -0.969213 4.013720 15.735700 0.000005 -0.000001 69.578000 85.377500 -64.734600 8.984550 -0.406207 -0.000000 1.067170 -3.507100 9.714320 16.377300 -0.000001 -0.000001 1.891360 -0.910538 -1.100310 6.456720 -0.000001 -0.000000 0.205731 -1.074260 11.912400 12.994200 -0.242716 4.980390 -83.827600 -11.548100 -61.620900 5.348090 -0.000007 -0.000001 -57.338600 -57.223600 -108.375000 24.328600 0.000019 0.000005 -1.168900 -0.916238 -51.914900 22.291600 -0.000001 0.000005 19.885400 5.591650 -10.856000 12.994500 -0.242716 -4.980390 90.663900 -1.647550 -68.048300 -5.348130 -0.000001 -0.000004 -50.516500 68.159600 2.318490 -24.328900 0.000322 -0.000009 19.545200 1.035260 -87.087400 -22.291500 -0.000108 -0.000004 26.582000 5.632700 -28.699900 -2.192480 -6.469440 -0.000000 -169.286000 -17.446800 -2.323040 39.081100 -0.000007 -0.000012 -0.161257 0.418748 21.061600 40.985400 -0.000006 -0.000013 -7.372480 -2.448080 -62.378600 11.754300 -0.000000 0.000003 -0.000098 -0.001009 -16.616300 -2.192510 6.469440 -0.000001 173.499000 22.208800 179.248000 -39.081100 -0.002282 -0.040193 -0.087466 0.244719 20.354100 -40.985400 0.000008 0.000006 -4.785130 0.952496 -63.229400 -11.754300 -0.000006 -0.000006 -0.003499 -0.046130 -18.449300
0.000000 0.000000 0.000000 0.000000 0.000000 -0.000000 -1.512680 92.065300 -1.453260 88.621400 -0.965813 4.021460 15.735700 0.000005 -0.000001 69.233000 85.331900 -64.411200 8.984550 -0.406207 -0.000000 1.135490 -3.587290 9.674050 16.377300 -0.000001 -0.000001 1.870510 -0.869479 -1.248070 6.456720 -0.000001 -0.000000 0.209175 -1.014700 11.948600 12.994200 -0.242716 4.980390 -83.858100 -11.495000 -61.631500 5.348090 -0.000007 -0.000001 -56.759300 -56.849300 -109.553000 24.328600 0.000019 0.000005 -1.222940 -0.863992 -54.761500 22.291600 -0.000001 0.000005 19.982200 5.599050 -11.284900 12.994500 -0.242716 -4.980390 90.662500 -1.644890 -68.059400 -5.348130 -0.000001 -0.000004 -50.452100 68.123700 2.195160 -24.328900 0.000322 -0.000009 19.581900 1.039840 -87.080500 -22.291500 -0.000108 -0.000004 26.628600 5.633160 -28.664600 -2.192480 -6.469440 -0.000000 -169.271000 -17.450000 -2.256450 39.081100 -0.000007 -0.000012 -0.160594 0.418208 21.007300 40.985400 -0.000006 -0.000013 -7.406110 -2.432810 -62.369800 11.754300 -0.000000 0.000003 -0.000102 -0.001049 -16.617800 -2.192510 6.469440 -0.000001 173.480000 22.188700 179.284000 -39.081100 -0.002282 -0.040193 -0.087160 0.243469 20.386700 -40.985400 0.000008 0.000006 -4.770450 0.983757 -63.295700 -11.754300 -0.000006 -0.000006 -0.003646 -0.047702 -18.513300
0.000000 0.000000 0.000000 0.000000 0.000000 -0.000000 -1.562160 92.061000 -1.394310 88.564500 -1.006000 3.979890 15.735700 0.000005 -0.000001 69.053100 85.317600 -64.220500 8.984550 -0.406207 -0.000000 1.153890 -3.624750 9.696620 16.377300 -0.000001 -0.000001 1.882020 -0.854718 -1.361690 6.456720 -0.000001 -0.000000 0.243598 -0.954543 11.933500 12.994200 -0.242716 4.980390 -83.915000 -11.392800 -61.645300 5.348090 -0.000007 -0.000001 -55.924900 -56.512300 -110.384000 24.328600 0.000019 0.000005 -1.750180 -1.184290 -55.925600 22.291600 -0.000001 0.000005 19.978700 5.608060 -11.836400 12.994500 -0.242716 -4.980390 90.670000 -1.664230 -68.068000 -5.348130 -0.000001 -0.000004 -50.459500 68.069500 2.118220 -24.328900 0.000322 -0.000009 19.555500 1.041320 -87.072100 -22.291500 -0.000108 -0.000004 26.596700 5.632890 -28.685000 -2.192480 -6.469440 -0.000000 -169.175000 -17.463500 -2.246870 39.081100 -0.000007 -0.000012 -0.161243 0.419814 21.011100 40.985400 -0.000006 -0.000013 -7.460270 -2.448420 -62.406000 11.754300 -0.000000 0.000003 -0.000103 -0.001051 -16.617900 -2.192510 6.469440 -0.000001 173.583000 22.246900 179.268000 -39.081100 -0.002282 -0.040193 -0.085726 0.239593 20.388100 -40.985400 0.000008 0.000006 -4.739790 0.972539 -63.329600 -11.754300 -0.000006 -0.000006 -0.003413 -0.045194 -18.411200
0.000000 0.000000 0.000000 0.000000 0.000000 -0.000000 -1.611300 92.052300 -1.332030 88.545400 -0.994922 3.964030 15.735700 0.000005 -0.000001 68.821500 85.291400 -63.967300 8.984550 -0.406207 -0.000000 1.192490 -3.678560 9.741660 16.377300 -0.000001 -0.000001 1.849530 -0.825584 -1.471610 6.456720 -0.000001 -0.000000 0.274260 -0.890209 11.772400 12.994200 -0.242716 4.980390 -83.943300 -11.308100 -61.581500 5.348090 -0.000007 -0.000001 -55.615200 -56.030200 -111.102000 24.328600 0.000019 0.000005 -1.537810 -1.044990 -55.810400 22.291600 -0.000001 0.000005 19.695000 5.606500 -11.737700 12.994500 -0.242716 -4.980390 90.688500 -1.709760 -68.061800 -5.348130 -0.000001 -0.000004 -50.409100 68.029200 1.992620 -24.328900 0.000322 -0.000009 19.545700 1.027590 -87.109100 -22.291500 -0.000108 -0.000004 26.520700 5.633220 -28.660000 -2.192480 -6.469440 -0.000000 -169.105000 -17.490800 -2.219270 39.081100 -0.000007 -0.000012 -0.162943 0.424137 21.015700 40.985400 -0.000006 -0.000013 -7.499610 -2.390460 -62.433300 11.754300 -0.000000 0.000003 -0.000109 -0.001108 -16.620000 -2.192510 6.469440 -0.000001 173.558000 22.477700 179.327000 -39.081100 -0.002282 -0.040193 -0.088426 0.246733 20.397500 -40.985400 0.000008 0.000006 -4.694730 1.248360 -63.378000 -11.754300 -0.000006 -0.000006 -0.003437 -0.045450 -18.421700
0.000000 0.000000 0.000000 0.000000 0.000000 -0.000000 -1.651130 92.045800 -1.287650 88.549600 -0.926062 3.967510 15.735700 0.000005 -0.000001 68.444100 85.265900 -63.557900 8.984550 -0.406207 -0.000000 1.222080 -3.755600 9.807420 16.377300 -0.000001 -0.000001 1.853490 -0.808380 -1.661260 6.456720 -0.000001 -0.000000 0.247523 -0.817827 11.668600 12.994200 -0.242716 4.980390 -83.937900 -11.305800 -61.554900 5.348090 -0.000007 -0.000001 -55.427500 -55.673900 -111.071000 24.328600 0.000019 0.000005 -1.288190 -0.901501 -55.020900 22.291600 -0.000001 0.000005 19.448000 5.602760 -11.508300 12.994500 -0.242716 -4.980390 90.693700 -1.719450 -68.024000 -5.348130 -0.000001 -0.000004 -50.327900 67.975200 1.886840 -24.328900 0.000322 -0.000009 19.507600 1.006520 -87.162300 -22.291500 -0.000108 -0.000004 26.375400 5.633090 -28.669900 -2.192480 -6.469440 -0.000000 -169.059000 -17.542200 -2.192680 39.081100 -0.000007 -0.000012 -0.163049 0.424660 21.004600 40.985400 -0.000006 -0.000013 -7.517400 -2.282640 -62.424500 11.754300 -0.000000 0.000003 -0.000115 -0.001157 -16.621800 -2.192510 6.469440 -0.000001 173.545000 22.742700 179.347000 -39.081100 -0.002282 -0.040193 -0.086694 0.241189 20.466200 -40.985400 0.000008 0.000006 -4.644400 1.363910 -63.437500 -11.754300 -0.000006 -0.000006 -0.003475 -0.045869 -18.438700
0.000000 0.000000 0.000000 0.000000 0.000000 -0.000000 -1.693390 92.053200 -1.231910 88.571400 -0.787272 3.924730 15.735700 0.000005 -0.000001 67.904000 85.239800 -62.979600 8.984550 -0.406207 -0.000000 1.243320 -3.859230 9.885570 16.377300 -0.000001 -0.000001 1.781250 -0.844596 -1.693910 6.456720 -0.000001 -0.000000 0.216229 -0.770647 11.532200 12.994200 -0.242716 4.980390 -83.972900 -11.268500 -61.616800 5.348090 -0.000007 -0.000001 -54.888200 -55.843500 -109.994000 24.328600 0.000019 0.000005 -1.197410 -0.872389 -53.931000 22.291600 -0.000001 0.000005 19.452300 5.601720 -11.445500 12.994500 -0.242716 -4.980390 90.695500 -1.718700 -67.965100 -5.348130 -0.000001 -0.000004 -50.169600 67.931800 1.693210 -24.328900 0.000322 -0.000009 19.483500 0.992245 -87.198700 -22.291500 -0.000108 -0.000004 26.304000 5.633110 -28.668300 -2.192480 -6.469440 -0.000000 -169.058000 -17.590900 -2.169660 39.081100 -0.000007 -0.000012 -0.160289 0.420115 20.883800 40.985400 -0.000006 -0.000013 -7.513280 -2.126620 -62.357600 11.754300 -0.000000 0.000003 -0.000123 -0.001229 -16.624500 -2.192510 6.469440 -0.000001 173.534000 22.860800 179.410000 -39.081100 -0.002282 -0.040193 -0.086051 0.240369 20.395700 -40.985400 0.000008 0.000006 -4.645540 1.336610 -63.465100 -11.754300 -0.000006 -0.000006 -0.003543 -0.046598 -18.468400
